<svg width="24" height="24" viewBox="0 0 24 24" fill="none" xmlns="http://www.w3.org/2000/svg">
<g id="gg:pin">
<g id="Group">
<path id="Vector" fill-rule="evenodd" clip-rule="evenodd" d="M16.2725 10.2734C16.2725 11.3343 15.851 12.3517 15.1009 13.1019C14.3507 13.852 13.3333 14.2734 12.2725 14.2734C11.2116 14.2734 10.1942 13.852 9.44403 13.1019C8.69389 12.3517 8.27246 11.3343 8.27246 10.2734C8.27246 9.21257 8.69389 8.19516 9.44403 7.44501C10.1942 6.69487 11.2116 6.27344 12.2725 6.27344C13.3333 6.27344 14.3507 6.69487 15.1009 7.44501C15.851 8.19516 16.2725 9.21257 16.2725 10.2734ZM14.2725 10.2734C14.2725 10.8039 14.0617 11.3126 13.6867 11.6877C13.3116 12.0627 12.8029 12.2734 12.2725 12.2734C11.742 12.2734 11.2333 12.0627 10.8582 11.6877C10.4832 11.3126 10.2725 10.8039 10.2725 10.2734C10.2725 9.74301 10.4832 9.2343 10.8582 8.85922C11.2333 8.48415 11.742 8.27344 12.2725 8.27344C12.8029 8.27344 13.3116 8.48415 13.6867 8.85922C14.0617 9.2343 14.2725 9.74301 14.2725 10.2734Z" fill="#A8A8A8"/>
<path id="Vector_2" fill-rule="evenodd" clip-rule="evenodd" d="M5.794 16.5181C4.50484 15.2907 3.60861 13.7085 3.21864 11.9717C2.82867 10.2349 2.96248 8.42149 3.60315 6.76074C4.24381 5.1 5.36256 3.66652 6.81792 2.6416C8.27328 1.61668 9.99988 1.04634 11.7794 1.00271C13.5589 0.959071 15.3114 1.4441 16.8152 2.39646C18.3191 3.34882 19.5067 4.72574 20.228 6.35309C20.9493 7.98044 21.1718 9.78514 20.8675 11.539C20.5631 13.2928 19.7455 14.917 18.518 16.2061L12.312 22.7241L5.794 16.5181ZM17.07 14.8271L12.243 19.8971L7.173 15.0701C6.17037 14.1154 5.47334 12.8849 5.17005 11.5341C4.86676 10.1833 4.97084 8.77285 5.46912 7.48119C5.9674 6.18953 6.8375 5.07462 7.96941 4.27746C9.10131 3.4803 10.4442 3.03668 11.8282 3.00269C13.2122 2.96871 14.5752 3.3459 15.7449 4.08655C16.9146 4.8272 17.8383 5.89806 18.3994 7.16371C18.9605 8.42936 19.1336 9.83297 18.897 11.197C18.6604 12.5611 18.0246 13.8244 17.07 14.8271Z" fill="#A8A8A8"/>
</g>
</g>
</svg>
