<svg width="23" height="20" viewBox="0 0 23 20" fill="none" xmlns="http://www.w3.org/2000/svg">
<g id="Group">
<path id="Vector" d="M1.00205 8.19204L1.00204 8.192C0.937712 5.32966 2.39661 2.92222 4.3992 1.75398C6.24382 0.680381 8.52416 0.671817 10.4802 2.26254L11.1112 2.77563L11.7421 2.26254C13.6986 0.671501 15.979 0.679529 17.8232 1.75401C19.8254 2.92096 21.2846 5.32931 21.2203 8.192C21.1536 11.1404 19.077 13.8394 16.5977 15.8796C15.3799 16.8817 14.1169 17.6807 13.0679 18.2251C12.5431 18.4974 12.0836 18.7 11.72 18.8317C11.5381 18.8977 11.3897 18.9424 11.2757 18.9698C11.171 18.9949 11.1203 18.9991 11.1119 18.9999C11.1116 18.9999 11.1114 18.9999 11.1112 18.9999C11.111 18.9999 11.1107 18.9999 11.1104 18.9999C11.102 18.9991 11.0513 18.9949 10.9466 18.9698C10.8326 18.9424 10.6841 18.8976 10.5023 18.8317C10.1386 18.7 9.67905 18.4974 9.15427 18.2251C8.10513 17.6807 6.84203 16.8817 5.62422 15.8796C3.14468 13.8393 1.06819 11.1404 1.00205 8.19204Z" stroke="#222222" stroke-width="2"/>
</g>
</svg>
