<svg width="27" height="27" viewBox="0 0 27 27" fill="none" xmlns="http://www.w3.org/2000/svg">
<path id="Vector" d="M25.5 25.5L19.7094 19.7094M19.7094 19.7094C20.6999 18.7189 21.4856 17.543 22.0217 16.2488C22.5577 14.9547 22.8336 13.5676 22.8336 12.1668C22.8336 10.766 22.5577 9.37896 22.0217 8.0848C21.4856 6.79065 20.6999 5.61475 19.7094 4.62424C18.7189 3.63373 17.543 2.84802 16.2488 2.31196C14.9547 1.77591 13.5676 1.5 12.1668 1.5C10.766 1.5 9.37896 1.77591 8.0848 2.31196C6.79065 2.84802 5.61474 3.63373 4.62424 4.62424C2.62382 6.62466 1.5 9.3378 1.5 12.1668C1.5 14.9958 2.62382 17.709 4.62424 19.7094C6.62466 21.7098 9.3378 22.8336 12.1668 22.8336C14.9958 22.8336 17.709 21.7098 19.7094 19.7094Z" stroke="white" stroke-width="1.5" stroke-linecap="round" stroke-linejoin="round"/>
</svg>
